<svg width="128" height="128" viewBox="100 400 520 720" xmlns="http://www.w3.org/2000/svg"><path d="M338.012,467.371c55.9,-7.825 112.888,7.725 154.194,46.346l1.633,-34.906l110.412,0.348l0.429,621.113l-119.094,0.729l0.14,-84.292c0.581,-38.062 0.669,-76.146 0.262,-114.229c-26.765,20.792 -52.321,33.083 -86.125,38.792c-59.756,9.646 -120.892,-4.896 -169.906,-40.417c-123.606,-89.792 -124.921,-294.833 -5.21,-388.29c33.813,-26.398 71.26,-39.381 113.265,-45.194Zm19.171,112.15c-155.729,31.208 -124.015,270.292 35.14,252.375c31.623,-7.125 63.613,-22.396 78.979,-52c48.587,-93.646 0.254,-206.665 -114.119,-200.375Z" fill="#0384d3"/></svg>
