<?xml version="1.0" encoding="UTF-8" standalone="no"?><!DOCTYPE svg PUBLIC "-//W3C//DTD SVG 1.1//EN" "http://www.w3.org/Graphics/SVG/1.1/DTD/svg11.dtd"><svg width="100%" height="100%" viewBox="0 0 3750 1250" version="1.1" xmlns="http://www.w3.org/2000/svg" xmlns:xlink="http://www.w3.org/1999/xlink" xml:space="preserve" xmlns:serif="http://www.serif.com/" style="fill-rule:evenodd;clip-rule:evenodd;stroke-linejoin:round;stroke-miterlimit:2;"><path d="M338.012,467.371c55.9,-7.825 112.888,7.725 154.194,46.346l1.633,-34.906l110.412,0.348l0.429,621.113l-119.094,0.729l0.14,-84.292c0.581,-38.062 0.669,-76.146 0.262,-114.229c-26.765,20.792 -52.321,33.083 -86.125,38.792c-59.756,9.646 -120.892,-4.896 -169.906,-40.417c-123.606,-89.792 -124.921,-294.833 -5.21,-388.29c33.813,-26.398 71.26,-39.381 113.265,-45.194Zm19.171,112.15c-155.729,31.208 -124.015,270.292 35.14,252.375c31.623,-7.125 63.613,-22.396 78.979,-52c48.587,-93.646 0.254,-206.665 -114.119,-200.375Z" style="fill:#0384d3;"/><path d="M3268.646,460.052c134.458,-6.86 249.125,96.36 256.396,230.802c7.271,134.438 -95.604,249.417 -230.021,257.104c-135,7.708 -250.583,-95.708 -257.896,-230.729c-7.292,-135.021 96.458,-250.287 231.521,-257.177Zm2.479,120.469c-68.125,5.438 -118.958,65.021 -113.625,133.146c5.354,68.125 64.854,119.063 133,113.813c68.271,-5.271 119.312,-64.917 113.958,-133.167c-5.354,-68.271 -65.083,-119.229 -133.333,-113.792Z" style="fill:#f36c17;"/><path d="M2429.667,469.504c12.625,-1.277 25.333,-1.637 38,-1.077c58.917,2.092 114.5,27.933 154.062,71.644c52.979,58.929 65.167,125.804 61.271,202.013c-112.188,0.062 -236.083,-2.688 -347.25,0.688c33.104,99.271 122.188,114.187 212.771,76.75c14.417,-5.958 26.458,-14.292 39.333,-23.104l19.854,17.875c17.688,15.375 35.479,30.604 53.417,45.667c-45.021,45.646 -88.25,70.958 -151.542,80.979c-136.083,21.812 -272.917,-55.979 -289.583,-199.979c-16.167,-139.792 69.271,-254.075 209.667,-271.454Zm6.521,105.933c-53.875,11.125 -79.604,36.646 -97.854,87l131.833,0l93.062,-0.021c-20.5,-65.292 -58.521,-91.863 -127.042,-86.979Z" style="fill:#0384d3;"/><path d="M1393.312,469.496c13.946,-1.45 27.981,-1.844 41.985,-1.177c124.958,6.165 211.754,108.598 215.608,230.931c0.454,14.458 -0.396,28.729 -1.135,43.146c-113.421,0.146 -233.358,-1.979 -346.019,0.917c35.075,119.604 166.117,114.438 252.931,54.021l19.162,16.812l52.948,45.75c-93.298,94.875 -235.873,114.75 -348.002,38.292c-108.408,-73.938 -123.404,-237.167 -46.944,-338.815c39.348,-52.308 95.038,-80.494 159.465,-89.877Zm11.287,106.067c-52.808,10.479 -81.34,36.708 -98.487,87.188l128.262,-0.188l95.665,0.021c-20.037,-66.396 -57.262,-91.356 -125.44,-87.021Z" style="fill:#0384d3;"/><path d="M2024.729,479.54l116.958,-0.354l0.021,138.523l-0.167,311.458l-108.396,-0.312c-0.146,-11.854 -0.792,-24.396 -1.208,-36.292c-9.125,8.25 -18.333,16.771 -28.583,23.604c-67.708,45.271 -173.667,36.542 -231.077,-21.188c-20.035,-20.333 -34.302,-45.604 -41.333,-73.271c-11.271,-42.875 -8.121,-116.021 -8.058,-162.333l-0.331,-180.123l117.487,0.158c0.854,63.542 -0.438,127.694 0.25,191.319c0.729,34.896 -1.833,68.792 3.146,103.437c9.833,72.146 114.625,83.875 158.271,37.771c31.292,-33.042 23.438,-107.792 23.417,-150.979l-0.396,-181.419Z" style="fill:#0384d3;fill-rule:nonzero;"/><path d="M994.065,479.233l117.913,-0.075l0.004,138.404l0.092,311.167c-36.994,-0.792 -73.996,-1.208 -111,-1.229l-0.89,-34.312c-37.987,35.167 -67.31,49.958 -120.646,51.5c-48.3,1.417 -96.542,-13.354 -131.633,-47.625c-21.715,-21.229 -37.135,-48.062 -44.563,-77.542c-9.981,-38.771 -7.425,-111.354 -7.448,-154.083l-0.317,-186.194l116.79,0.156l0.242,182.517c0.017,35.979 -2.15,80.188 3.8,114.854c14.915,86.896 161.917,80.75 174.977,-4.979c5.375,-35.271 3.119,-75.542 3.006,-111.167l-0.327,-181.392Z" style="fill:#0384d3;fill-rule:nonzero;"/><path d="M2915.604,464.727c6.417,0.619 11.042,0.294 16.167,4.017c2.625,12.019 1.146,114.131 1.083,136.027l0.208,324.417l-125.042,0.062l-0.167,-39.146l0.188,-258.479c-20.562,0.042 -39.271,0.104 -59.875,1.292c30.375,-33.896 68,-66.692 100.604,-99.329c20.229,-20.242 46.75,-51.537 66.833,-68.86Z" style="fill:#f36c17;fill-rule:nonzero;"/><path d="M2859.583,240.567c42.292,-5.871 81.313,23.763 87.021,66.09c5.688,42.329 -24.104,81.225 -66.437,86.752c-42.125,5.496 -80.75,-24.088 -86.417,-66.175c-5.667,-42.085 23.771,-80.831 65.833,-86.667Z" style="fill:#f36c17;fill-rule:nonzero;"/></svg>